<svg width="140" height="131" viewBox="0 0 140 131" fill="none" xmlns="http://www.w3.org/2000/svg">
<path fill-rule="evenodd" clip-rule="evenodd" d="M23.1551 1.53358C22.6774 2.01038 20.986 3.47998 19.397 4.79998C17.808 6.11998 15.9644 7.67998 15.3003 8.26638C14.637 8.85358 12.7986 10.4136 11.2166 11.7336C9.63463 13.0536 7.86713 14.5536 7.28788 15.0664C5.35063 16.784 0.601129 20.7584 0.247629 20.9584C0.000879034 21.0976 0.157508 21.4192 0.774383 22.0448C1.25651 22.5336 2.23126 23.5256 2.94001 24.2504C3.64876 24.9744 4.68826 26.004 5.25001 26.5384C5.81176 27.0728 7.25551 28.5104 8.45864 29.732C9.66176 30.9544 11.0399 32.3344 11.5211 32.7992C12.0024 33.264 13.3805 34.644 14.5836 35.8656C15.7868 37.088 17.1649 38.464 17.6461 38.924C18.1274 39.384 19.5055 40.7648 20.7086 41.9912C21.9118 43.2184 23.2899 44.6024 23.7711 45.0672C24.2524 45.532 25.6305 46.912 26.8336 48.1344C28.0368 49.3568 29.4805 50.796 30.0414 51.3336C30.6031 51.8704 32.0469 53.3104 33.25 54.532C34.4531 55.7544 35.8313 57.1312 36.3125 57.5912C36.7938 58.052 38.2375 59.4936 39.5211 60.796C40.8039 62.0976 42.2476 63.5448 42.7289 64.0104C43.2101 64.4768 44.457 65.736 45.5 66.8096C46.543 67.8824 47.7899 69.14 48.2711 69.6032C48.7524 70.0664 50.1305 71.444 51.3336 72.6632C52.5368 73.8824 53.9954 75.34 54.5755 75.9024L55.6299 76.9232L57.7832 74.7504C58.968 73.5552 60.3313 72.1936 60.8125 71.724C61.2938 71.2544 62.6719 69.8784 63.875 68.6664C65.0781 67.4544 66.4563 66.0888 66.9375 65.6312C67.4188 65.1744 68.2168 64.3472 68.7111 63.7944L69.6098 62.788L70.315 63.4072C70.7035 63.748 72.0055 65.0304 73.2086 66.2576C74.4118 67.4848 75.7899 68.8696 76.2711 69.3344C76.7524 69.7992 78.1305 71.1712 79.3336 72.3832C80.5368 73.5952 82.0531 75.1088 82.7024 75.7464L83.8845 76.9064L85.911 74.8848C87.0258 73.7728 88.3313 72.4784 88.8125 72.0088C89.2938 71.54 90.6719 70.156 91.875 68.9344C93.0781 67.712 94.4563 66.3328 94.9375 65.8688C95.4188 65.4048 96.7312 64.0816 97.8539 62.9288C98.9774 61.776 100.29 60.4544 100.771 59.9936C101.252 59.532 102.631 58.1544 103.834 56.932C105.037 55.7104 106.48 54.2704 107.041 53.7336C107.603 53.196 109.047 51.7528 110.25 50.5256C111.453 49.2984 112.831 47.9168 113.312 47.4568C113.794 46.996 115.041 45.7456 116.084 44.6768C117.126 43.608 118.438 42.2888 119 41.7448C119.562 41.2016 121.005 39.756 122.209 38.5336C123.412 37.3112 124.79 35.9288 125.271 35.4616C125.752 34.9936 127.196 33.5504 128.479 32.2536C129.763 30.9568 131.206 29.5184 131.688 29.0576C132.169 28.5968 133.613 27.1648 134.896 25.876C136.179 24.5872 137.722 23.0584 138.323 22.4784C139.651 21.1968 139.654 21.1632 138.469 20.3296C137.947 19.9632 136.721 18.9592 135.745 18.0984C134.768 17.2376 132.676 15.4536 131.096 14.1336C129.516 12.8136 127.747 11.3136 127.166 10.8C126.585 10.2864 124.75 8.72638 123.09 7.33358C121.429 5.93998 119.508 4.30318 118.822 3.69598C118.135 3.08958 116.994 2.15918 116.287 1.62958L115.002 0.666382H69.5135H24.024L23.1551 1.53358ZM43.4586 8.39998C43.4586 8.54638 43.3598 8.66718 43.2399 8.66798C43.1191 8.66798 42.0849 9.47838 40.9412 10.468C39.7976 11.4568 37.576 13.3464 36.0045 14.6664C34.4339 15.9864 32.6778 17.4864 32.102 18C31.5271 18.5136 30.4133 19.4456 29.6275 20.0712L28.1986 21.2088L28.9013 21.928C29.288 22.324 29.932 22.9584 30.3336 23.3384C30.7344 23.7176 32.0469 25.032 33.25 26.2592C34.4531 27.4864 35.8969 28.9296 36.4586 29.4664C37.0195 30.004 38.4632 31.448 39.6664 32.6752C40.8695 33.9024 42.3133 35.3424 42.875 35.8752C43.4368 36.408 44.8805 37.8432 46.0836 39.0656C47.2868 40.288 48.6649 41.6672 49.1461 42.1312C49.6274 42.5952 50.9399 43.9184 52.0625 45.0712C53.1851 46.224 54.4976 47.5488 54.9789 48.0144C56.3797 49.3696 58.9015 51.8952 61.1039 54.1488C62.2274 55.2976 63.4209 56.5016 63.7578 56.824L64.3694 57.4096L62.7366 58.9984C61.8389 59.8728 60.1851 61.5288 59.0625 62.6792C57.9399 63.8296 56.7114 65.0664 56.3334 65.4264L55.6456 66.0816L53.9998 64.4808C53.095 63.6 51.4351 61.9384 50.3125 60.7888C49.1899 59.6384 47.8118 58.2608 47.25 57.7272C46.6883 57.1936 45.2445 55.7608 44.0414 54.5432C41.4601 51.9312 38.99 49.4624 37.7711 48.2768C37.2899 47.808 35.9774 46.4816 34.8539 45.328C33.7313 44.1752 32.3531 42.7976 31.7914 42.2664C31.2305 41.736 29.8524 40.3584 28.7289 39.2048C27.6063 38.052 26.2938 36.7248 25.8125 36.256C25.3313 35.7872 23.9531 34.412 22.75 33.2C21.5469 31.988 20.1688 30.6128 19.6875 30.144C19.2063 29.6752 17.8938 28.3536 16.7711 27.2064C15.6476 26.0584 13.9746 24.392 13.0524 23.5024C10.9935 21.5176 10.8824 21.9832 14.0525 19.3176C15.5243 18.08 17.2069 16.6464 17.7914 16.1336C18.3759 15.62 20.0778 14.18 21.574 12.9336C23.0694 11.6864 24.9471 10.0968 25.7469 9.39998L27.2003 8.13358H35.329C40.5545 8.13358 43.4586 8.22878 43.4586 8.39998ZM113.252 8.99998C113.791 9.47678 115.523 10.9464 117.1 12.2664C118.679 13.5864 120.45 15.0864 121.037 15.6C123.096 17.4008 127.318 20.9144 127.845 21.2664C128.343 21.5992 128.286 21.712 126.97 22.98C126.196 23.7264 124.644 25.2672 123.521 26.404C122.398 27.5408 121.085 28.8552 120.604 29.3256C119.509 30.396 117.452 32.4632 114.625 35.3344C113.422 36.5568 111.978 37.9936 111.416 38.5272C110.855 39.0608 109.477 40.4416 108.354 41.5952C107.231 42.7488 105.853 44.1288 105.291 44.6624C104.73 45.1952 103.352 46.5752 102.229 47.7288C101.106 48.8824 99.7281 50.2648 99.1664 50.8C98.6055 51.3352 97.2274 52.7176 96.1039 53.8712C94.9812 55.0248 93.6031 56.4024 93.0414 56.9336C92.4805 57.464 91.1024 58.8376 89.9789 59.9864C88.8562 61.1352 87.297 62.688 86.5139 63.4376C85.7308 64.1872 84.8951 65.0704 84.6571 65.4C84.2118 66.0168 83.5398 66.1968 83.3683 65.7448C83.2659 65.476 80.059 62.1984 77.9555 60.2128C77.2783 59.5728 76.3796 58.6376 75.9596 58.1328L75.1949 57.2168L76.7533 55.7112C79.1394 53.408 79.8831 52.6712 82.25 50.2664C83.4531 49.0448 84.8313 47.664 85.3125 47.1992C85.7938 46.7344 87.1719 45.3544 88.375 44.132C89.5781 42.9104 91.0219 41.4704 91.5836 40.9336C92.1445 40.396 93.5882 38.9568 94.7914 37.7344C95.9945 36.512 97.3726 35.132 97.8539 34.6672C98.3351 34.2024 99.7132 32.8224 100.916 31.6C102.119 30.3776 103.498 28.9976 103.979 28.5328C104.46 28.068 105.838 26.6832 107.041 25.456C108.244 24.228 109.672 22.8368 110.212 22.364L111.194 21.504L110.556 20.6856C110.205 20.2352 109.829 19.8664 109.72 19.8656C109.61 19.8656 108.595 19.0552 107.464 18.0656C106.332 17.076 104.118 15.1864 102.543 13.8664C100.969 12.5464 98.8111 10.7168 97.7489 9.79998L95.8169 8.13358H104.045H112.272L113.252 8.99998ZM84.9538 8.99998C85.3335 9.32958 86.8718 10.62 88.3733 11.8664C89.8756 13.1136 91.5819 14.5536 92.1664 15.0664C93.6311 16.3536 98.2555 20.2032 99.2775 20.988L100.118 21.632L98.84 22.8368C98.1374 23.5 96.6438 24.984 95.5211 26.1344C94.3976 27.2848 93.0195 28.6624 92.4586 29.1952C91.8969 29.7288 90.5188 31.104 89.3961 32.252C86.1534 35.5664 84.5136 37.2144 83.4164 38.2592C82.8555 38.7936 81.4774 40.1752 80.3539 41.3288C79.2312 42.4824 77.8531 43.8624 77.2914 44.3952C76.7305 44.9288 75.3524 46.3056 74.2289 47.4568C73.1062 48.6072 71.638 50.0696 70.9669 50.7056L69.7454 51.8632L68.3419 50.4952C67.5693 49.7424 66.4781 48.6832 65.9164 48.1416C65.3555 47.6 63.9118 46.156 62.7086 44.9336C61.5055 43.7112 60.1274 42.3272 59.6461 41.8576C59.1649 41.388 57.7868 40.008 56.5836 38.7904C55.3805 37.5728 53.9368 36.1376 53.375 35.6016C52.8133 35.0648 51.4351 33.6824 50.3125 32.5288C49.1899 31.3752 47.8118 29.996 47.25 29.4632C46.6883 28.9312 45.3758 27.6208 44.3336 26.5528C43.2906 25.484 41.8136 23.9968 41.0524 23.248C39.3286 21.5544 39.1991 21.9496 42.3386 19.312C43.8086 18.0768 45.4921 16.6464 46.0793 16.1336C46.6673 15.62 48.4391 14.12 50.0168 12.8C51.5953 11.48 53.3846 9.95038 53.9936 9.39998L55.1023 8.39998H69.6833H84.2651L84.9538 8.99998ZM66.409 13.2432C67.1807 13.8536 68.145 14.664 68.5519 15.0432C69.4304 15.864 74.4581 20.0728 75.6481 20.9848L76.4838 21.6256L75.3568 22.708C74.7364 23.3032 73.2445 24.7832 72.0414 25.9968C70.8382 27.2104 69.4601 28.5848 68.9789 29.0512C68.4976 29.5176 67.1851 30.8392 66.0625 31.9896C64.9399 33.1392 63.4489 34.632 62.7489 35.3064C60.7145 37.2696 60.5168 37.62 61.0382 38.3336C61.2798 38.6632 62.0498 39.4768 62.7489 40.1416C63.4489 40.8064 64.393 41.7576 64.848 42.2552L65.674 43.1608L67.3269 41.552C68.236 40.6672 69.9632 38.9456 71.1664 37.728C72.3695 36.5096 73.7476 35.132 74.2289 34.6672C74.7101 34.2024 76.0882 32.8224 77.2914 31.6C78.4945 30.3776 79.8726 28.9976 80.3539 28.5328C80.8351 28.068 82.2132 26.688 83.4164 25.4656C84.6195 24.244 86.0309 22.84 86.5524 22.3464C87.5385 21.412 87.4038 20.5584 86.1709 19.9272C85.7535 19.7136 80.2471 15.06 78.2889 13.2664L77.0516 12.1336H71.029H65.0064L66.409 13.2432ZM29.6651 107.5C29.5811 107.577 29.3361 107.673 29.1209 107.712C26.7549 108.15 23.842 111.373 23.1683 114.298C21.903 119.788 23.0265 125.126 26.0155 127.823C27.874 129.502 28.651 129.779 31.7345 129.866C33.9815 129.93 35.049 129.686 36.799 128.706C38.1763 127.934 39.8729 125.544 40.3961 123.638C40.6446 122.733 40.6385 122.711 40.1249 122.642C39.8869 122.61 39.2726 122.393 38.7599 122.158C37.8131 121.727 37.0781 121.589 37.4281 121.909C37.534 122.006 37.4736 122.246 37.2951 122.442C37.1166 122.639 37.0554 122.8 37.1595 122.8C37.4071 122.8 36.498 124.402 35.9826 124.873C35.763 125.074 35.5836 125.327 35.5836 125.436C35.5836 126.282 31.1343 127.074 29.9504 126.439C25.382 123.993 25.3715 113.057 29.9355 110.892C32.6944 109.583 36.2136 111.581 36.7036 114.734L36.9005 116L38.5753 116.08L40.25 116.16V111.88V107.6H38.5H36.75L36.7491 108.866L36.7483 110.134L36.1743 109.274C35.3246 107.999 30.5436 106.696 29.6651 107.5ZM48.4916 115.934C48.6036 124.639 48.608 124.69 49.4804 126.386C51.4036 130.13 57.372 131.208 61.1266 128.49C62.3814 127.581 62.7288 127.067 63.5303 124.934C63.6125 124.714 63.7315 120.723 63.7936 116.066L63.9074 107.6H61.9955H60.0836L60.0513 115C60.0031 126.064 59.843 126.546 56.1663 126.678C52.71 126.802 52.4422 125.988 52.4878 115.534L52.5219 107.6H50.4525H48.384L48.4916 115.934ZM72.9164 118.653V129.734H74.9718H77.0263L76.9405 125.2L76.8539 120.666L77.6361 120.666C78.3974 120.666 79.625 121.803 79.625 122.508C79.625 122.669 79.7562 122.8 79.9164 122.8C80.0774 122.8 80.2086 122.928 80.2086 123.085C80.2086 123.241 80.5368 123.762 80.9375 124.243C81.3383 124.724 81.6664 125.256 81.6664 125.425C81.6664 125.594 81.7976 125.734 81.9586 125.734C82.1188 125.734 82.25 125.872 82.25 126.042C82.25 126.211 82.5781 126.743 82.9789 127.224C83.3805 127.705 83.7086 128.226 83.7086 128.382C83.7086 128.538 83.8399 128.666 84 128.666C84.1601 128.666 84.2914 128.834 84.2914 129.038C84.2914 129.242 84.4996 129.482 84.7534 129.571C85.5269 129.843 89.5414 129.755 89.5414 129.466C89.5414 129.32 89.4381 129.2 89.3113 129.2C89.1844 129.2 88.6979 128.6 88.2289 127.866C87.7607 127.134 87.2734 126.534 87.1474 126.534C87.0205 126.534 86.9164 126.354 86.9164 126.134C86.9164 125.914 86.7851 125.734 86.625 125.734C86.4649 125.734 86.3336 125.554 86.3336 125.334C86.3336 125.114 86.2295 124.934 86.1026 124.934C85.9766 124.934 85.4893 124.334 85.0211 123.6C84.5521 122.866 84.0656 122.266 83.9388 122.266C83.8119 122.266 83.7086 122.086 83.7086 121.866C83.7086 121.646 83.5922 121.466 83.4505 121.466C82.7934 121.466 82.943 120.508 83.6071 120.458C88.8633 120.06 91.1785 113.122 87.2699 109.485C85.6581 107.986 84.1164 107.671 78.1384 107.618L72.9164 107.572V118.653ZM102.781 107.979C102.694 108.188 102.595 108.518 102.563 108.713C102.531 108.907 102.402 109.217 102.277 109.4C102.151 109.583 102.116 109.734 102.199 109.734C102.281 109.734 102.028 110.514 101.636 111.466C101.243 112.42 100.985 113.2 101.062 113.2C101.14 113.2 100.882 113.98 100.489 114.934C100.097 115.886 99.8524 116.666 99.9443 116.666C100.037 116.666 99.9495 116.846 99.75 117.066C99.5505 117.286 99.4674 117.466 99.5662 117.466C99.6642 117.466 99.4236 118.246 99.0316 119.2C98.6388 120.154 98.3938 120.934 98.4865 120.934C98.5793 120.934 98.4917 121.114 98.2914 121.334C98.0919 121.554 98.0088 121.734 98.1076 121.734C98.2065 121.734 97.9659 122.514 97.573 123.466C97.181 124.42 96.9351 125.2 97.0279 125.2C97.1206 125.2 97.0331 125.38 96.8336 125.6C96.6333 125.82 96.5501 126 96.6472 126C96.7452 126 96.5659 126.6 96.25 127.334C95.9341 128.066 95.7548 128.666 95.8528 128.666C95.9499 128.666 95.8834 128.828 95.7049 129.025C95.2018 129.579 95.6121 129.734 97.5914 129.734C99.2688 129.734 100.262 129.161 99.7894 128.466C99.764 128.428 99.9364 127.976 100.172 127.461C100.407 126.946 100.606 126.466 100.613 126.395C100.619 126.325 100.642 126.206 100.662 126.134C100.682 126.06 100.72 125.91 100.748 125.8C101.118 124.348 100.945 124.4 105.36 124.4C107.621 124.4 109.386 124.479 109.281 124.575C109.175 124.672 109.235 124.912 109.414 125.109C109.592 125.306 109.663 125.466 109.571 125.466C109.48 125.466 109.596 125.886 109.831 126.4C110.066 126.914 110.175 127.334 110.072 127.334C109.97 127.334 110.023 127.483 110.19 127.666C110.356 127.85 110.509 128.12 110.53 128.266C110.729 129.68 110.814 129.734 112.881 129.734C114.874 129.734 115.112 129.589 114.527 128.734C114.401 128.55 114.366 128.4 114.449 128.4C114.531 128.4 114.278 127.62 113.886 126.666C113.493 125.714 113.252 124.934 113.351 124.934C113.449 124.934 113.367 124.754 113.166 124.534C112.967 124.314 112.879 124.134 112.972 124.134C113.065 124.134 112.819 123.354 112.427 122.4C112.034 121.446 111.777 120.666 111.854 120.666C111.932 120.666 111.674 119.886 111.282 118.934C110.889 117.98 110.644 117.2 110.737 117.2C110.829 117.2 110.742 117.02 110.541 116.8C110.342 116.58 110.254 116.4 110.347 116.4C110.44 116.4 110.194 115.62 109.802 114.666C109.409 113.714 109.169 112.934 109.267 112.934C109.366 112.934 109.283 112.754 109.084 112.534C108.883 112.314 108.796 112.134 108.889 112.134C108.981 112.134 108.736 111.354 108.343 110.4C107.951 109.446 107.711 108.666 107.809 108.666C107.908 108.666 107.842 108.506 107.664 108.309C107.485 108.112 107.425 107.872 107.531 107.775C107.636 107.679 106.646 107.6 105.331 107.6C103.534 107.6 102.901 107.694 102.781 107.979ZM83.4453 111.352C84.9161 112.03 85.4114 112.839 85.3528 114.466C85.2688 116.765 83.8521 117.534 79.625 117.58L76.8539 117.61L76.9431 114.189L77.0332 110.769L79.7143 110.818C81.6393 110.854 82.6919 111.005 83.4453 111.352ZM105.438 112.842C105.493 113.112 105.549 113.363 105.561 113.4C105.573 113.437 105.589 113.525 105.596 113.595C105.603 113.666 105.802 114.146 106.038 114.662C106.273 115.178 106.401 115.6 106.32 115.6C106.241 115.6 106.434 116.2 106.75 116.934C107.066 117.666 107.259 118.266 107.18 118.266C107.099 118.266 107.226 118.686 107.461 119.2C107.695 119.714 107.812 120.134 107.72 120.134C107.629 120.134 107.699 120.294 107.879 120.491C108.418 121.086 107.947 121.2 104.966 121.2H102.113L102.54 120.266C102.774 119.754 102.901 119.334 102.82 119.334C102.741 119.334 102.934 118.734 103.25 118C103.566 117.266 103.763 116.666 103.688 116.666C103.612 116.666 103.809 116.066 104.125 115.334C104.441 114.6 104.628 114 104.541 114C104.454 114 104.486 113.85 104.614 113.666C104.865 113.304 104.908 113.16 104.963 112.489C105.008 111.95 105.297 112.166 105.438 112.842Z" fill="#0077B6"/>
<path fill-rule="evenodd" clip-rule="evenodd" d="M29.75 8.32077C36.631 8.50957 43.4586 8.51597 43.4586 8.33357C43.4586 8.22317 39.7504 8.15837 35.2187 8.18877C30.6871 8.21997 28.2257 8.27917 29.75 8.32077ZM99.9688 8.33277C102.254 8.37757 105.995 8.37757 108.281 8.33277C110.567 8.28797 108.697 8.25117 104.125 8.25117C99.5531 8.25117 97.6824 8.28797 99.9688 8.33277ZM66.9375 12.0504C71.9241 12.2416 77.2257 12.2496 77.1015 12.0664C77.0271 11.9568 74.2499 11.8904 70.931 11.92C67.6112 11.9488 65.8149 12.008 66.9375 12.0504ZM40.369 111.866C40.369 114.286 40.4127 115.277 40.467 114.066C40.5212 112.857 40.5212 110.877 40.467 109.666C40.4127 108.457 40.369 109.446 40.369 111.866ZM59.92 115.066C59.92 119.246 59.9602 120.957 60.0101 118.866C60.0591 116.777 60.0591 113.357 60.0101 111.266C59.9602 109.177 59.92 110.886 59.92 115.066ZM77.4375 120.863C77.9187 120.928 78.5094 121.12 78.75 121.29C79.1306 121.56 79.1359 121.539 78.7876 121.134C78.54 120.846 78.0377 120.682 77.4751 120.706L76.5625 120.746L77.4375 120.863ZM39.4222 125.611C38.934 126.592 39.0267 126.802 39.5552 125.91C39.802 125.494 39.949 125.103 39.8825 125.042C39.816 124.981 39.6086 125.238 39.4222 125.611Z" fill="#F0ECEC"/>
<path fill-rule="evenodd" clip-rule="evenodd" d="M29.75 8.32077C36.631 8.50957 43.4586 8.51597 43.4586 8.33357C43.4586 8.22317 39.7504 8.15837 35.2187 8.18877C30.6871 8.21997 28.2257 8.27917 29.75 8.32077ZM99.9688 8.33277C102.254 8.37757 105.995 8.37757 108.281 8.33277C110.567 8.28797 108.697 8.25117 104.125 8.25117C99.5531 8.25117 97.6824 8.28797 99.9688 8.33277ZM66.9375 12.0504C71.9241 12.2416 77.2257 12.2496 77.1015 12.0664C77.0271 11.9568 74.2499 11.8904 70.931 11.92C67.6112 11.9488 65.8149 12.008 66.9375 12.0504ZM40.369 111.866C40.369 114.286 40.4127 115.277 40.467 114.066C40.5212 112.857 40.5212 110.877 40.467 109.666C40.4127 108.457 40.369 109.446 40.369 111.866ZM59.92 115.066C59.92 119.246 59.9602 120.957 60.0101 118.866C60.0591 116.777 60.0591 113.357 60.0101 111.266C59.9602 109.177 59.92 110.886 59.92 115.066ZM77.4375 120.863C77.9187 120.928 78.5094 121.12 78.75 121.29C79.1306 121.56 79.1359 121.539 78.7876 121.134C78.54 120.846 78.0377 120.682 77.4751 120.706L76.5625 120.746L77.4375 120.863ZM39.4222 125.611C38.934 126.592 39.0267 126.802 39.5552 125.91C39.802 125.494 39.949 125.103 39.8825 125.042C39.816 124.981 39.6086 125.238 39.4222 125.611Z" fill="#F0ECEC"/>
<path fill-rule="evenodd" clip-rule="evenodd" d="M29.75 8.32077C36.631 8.50957 43.4586 8.51597 43.4586 8.33357C43.4586 8.22317 39.7504 8.15837 35.2187 8.18877C30.6871 8.21997 28.2257 8.27917 29.75 8.32077ZM99.9688 8.33277C102.254 8.37757 105.995 8.37757 108.281 8.33277C110.567 8.28797 108.697 8.25117 104.125 8.25117C99.5531 8.25117 97.6824 8.28797 99.9688 8.33277ZM66.9375 12.0504C71.9241 12.2416 77.2257 12.2496 77.1015 12.0664C77.0271 11.9568 74.2499 11.8904 70.931 11.92C67.6112 11.9488 65.8149 12.008 66.9375 12.0504ZM40.369 111.866C40.369 114.286 40.4127 115.277 40.467 114.066C40.5212 112.857 40.5212 110.877 40.467 109.666C40.4127 108.457 40.369 109.446 40.369 111.866ZM59.92 115.066C59.92 119.246 59.9602 120.957 60.0101 118.866C60.0591 116.777 60.0591 113.357 60.0101 111.266C59.9602 109.177 59.92 110.886 59.92 115.066ZM77.4375 120.863C77.9187 120.928 78.5094 121.12 78.75 121.29C79.1306 121.56 79.1359 121.539 78.7876 121.134C78.54 120.846 78.0377 120.682 77.4751 120.706L76.5625 120.746L77.4375 120.863ZM39.4222 125.611C38.934 126.592 39.0267 126.802 39.5552 125.91C39.802 125.494 39.949 125.103 39.8825 125.042C39.816 124.981 39.6086 125.238 39.4222 125.611Z" fill="#F0ECEC"/>
<path fill-rule="evenodd" clip-rule="evenodd" d="M29.75 8.32077C36.631 8.50957 43.4586 8.51597 43.4586 8.33357C43.4586 8.22317 39.7504 8.15837 35.2187 8.18877C30.6871 8.21997 28.2257 8.27917 29.75 8.32077ZM99.9688 8.33277C102.254 8.37757 105.995 8.37757 108.281 8.33277C110.567 8.28797 108.697 8.25117 104.125 8.25117C99.5531 8.25117 97.6824 8.28797 99.9688 8.33277ZM66.9375 12.0504C71.9241 12.2416 77.2257 12.2496 77.1015 12.0664C77.0271 11.9568 74.2499 11.8904 70.931 11.92C67.6112 11.9488 65.8149 12.008 66.9375 12.0504ZM40.369 111.866C40.369 114.286 40.4127 115.277 40.467 114.066C40.5212 112.857 40.5212 110.877 40.467 109.666C40.4127 108.457 40.369 109.446 40.369 111.866ZM59.92 115.066C59.92 119.246 59.9602 120.957 60.0101 118.866C60.0591 116.777 60.0591 113.357 60.0101 111.266C59.9602 109.177 59.92 110.886 59.92 115.066ZM77.4375 120.863C77.9187 120.928 78.5094 121.12 78.75 121.29C79.1306 121.56 79.1359 121.539 78.7876 121.134C78.54 120.846 78.0377 120.682 77.4751 120.706L76.5625 120.746L77.4375 120.863ZM39.4222 125.611C38.934 126.592 39.0267 126.802 39.5552 125.91C39.802 125.494 39.949 125.103 39.8825 125.042C39.816 124.981 39.6086 125.238 39.4222 125.611Z" fill="#F0ECEC"/>
</svg>
